Coordinates
version=1
nRows=60
nColumns=12
inDegrees=yes

Units are S.I. units (second, meters, Newtons, ...)
Angles are in degrees

endheader
time	SC_y	SC_z	SC_x	AC_y	AC_z	AC_x	GH_y	GH_z	GH_yy	EL_x	PS_y
       0.0              -23.24          18.26          12.08          44.14         -7.482        -0.5502         -45.05          28.34          138.2          98.93          136.7
    0.0381              -23.25          18.26          12.08          44.14         -7.482        -0.5516         -45.06          28.33          138.1          98.93          136.7
    0.0762              -23.25          18.26          12.09          44.14         -7.482        -0.5531         -45.08          28.33          138.1          98.93          136.7
    0.1143              -23.26          18.26           12.1          44.13         -7.482        -0.5547          -45.1          28.32          138.1          98.93          136.7
    0.1524              -23.26          18.26          12.11          44.13         -7.482        -0.5564         -45.12          28.32          138.0          98.93          136.7
    0.1905              -23.27          18.26          12.13          44.13         -7.482        -0.5582         -45.14          28.31          138.0          98.93          136.7
    0.2286              -23.27          18.26          12.14          44.13         -7.481        -0.5601         -45.16           28.3          137.9          98.93          136.7
    0.2667              -23.28          18.26          12.15          44.12         -7.481        -0.5622         -45.18          28.29          137.9          98.93          136.7
    0.3048              -23.29          18.26          12.16          44.12         -7.481        -0.5644         -45.21          28.29          137.9          98.93          136.7
    0.3429              -23.29          18.26          12.18          44.12         -7.481        -0.5668         -45.24          28.28          137.8          98.93          136.7
     0.381               -23.3          18.26          12.19          44.11          -7.48        -0.5693         -45.27          28.27          137.8          98.93          136.7
    0.4191              -23.31          18.26          12.21          44.11          -7.48        -0.5721          -45.3          28.26          137.7          98.93          136.7
    0.4572              -23.32          18.26          12.23          44.11          -7.48         -0.575         -45.33          28.25          137.6          98.93          136.6
    0.4953              -23.33          18.26          12.25           44.1         -7.479        -0.5782         -45.37          28.23          137.6          98.93          136.6
    0.5334              -23.34          18.27          12.27           44.1         -7.479        -0.5817         -45.41          28.22          137.5          98.93          136.6
    0.5715              -23.35          18.27          12.29          44.09         -7.479        -0.5854         -45.45          28.21          137.4          98.93          136.6
    0.6096              -23.37          18.27          12.32          44.09         -7.478        -0.5895          -45.5          28.19          137.3          98.93          136.6
    0.6477              -23.38          18.27          12.34          44.08         -7.478        -0.5939         -45.55          28.18          137.2          98.93          136.6
    0.6858               -23.4          18.27          12.37          44.07         -7.477        -0.5988          -45.6          28.16          137.1          98.93          136.5
    0.7239              -23.41          18.27          12.41          44.07         -7.476        -0.6041         -45.66          28.14          137.0          98.93          136.5
     0.762              -23.43          18.27          12.44          44.06         -7.476        -0.6099         -45.73          28.12          136.9          98.93          136.5
    0.8001              -23.45          18.27          12.48          44.05         -7.475        -0.6163          -45.8          28.09          136.8          98.93          136.5
    0.8382              -23.48          18.27          12.52          44.04         -7.474        -0.6234         -45.88          28.07          136.6          98.93          136.5
    0.8763               -23.5          18.27          12.57          44.03         -7.473        -0.6312         -45.97          28.04          136.5          98.93          136.4
    0.9144              -23.53          18.27          12.63          44.02         -7.472        -0.6399         -46.07           28.0          136.3          98.93          136.4
    0.9525              -23.56          18.27          12.69          44.01         -7.471        -0.6497         -46.19          27.97          136.1          98.93          136.4
    0.9906               -23.6          18.27          12.75          43.99          -7.47        -0.6606         -46.31          27.93          135.9          98.93          136.3
     1.029              -23.64          18.27          12.83          43.98         -7.469        -0.6728         -46.45          27.88          135.6          98.93          136.3
     1.067              -23.68          18.28          12.91          43.96         -7.467        -0.6867         -46.61          27.83          135.3          98.93          136.2
     1.105              -23.73          18.28          13.01          43.94         -7.466        -0.7024         -46.79          27.77          135.0          98.93          136.1
     1.143              -23.79          18.28          13.12          43.91         -7.464        -0.7204          -47.0           27.7          134.6          98.93          136.1
     1.181              -23.86          18.28          13.24          43.88         -7.461         -0.741         -47.23          27.63          134.2          98.94          136.0
     1.219              -23.93          18.28          13.39          43.85         -7.459        -0.7648          -47.5          27.54          133.7          98.94          135.9
     1.257              -24.02          18.29          13.56          43.82         -7.456        -0.7924         -47.82          27.44          133.1          98.94          135.8
     1.295              -24.13          18.29          13.76          43.77         -7.452        -0.8248         -48.19          27.31          132.4          98.94          135.7
     1.333              -24.25          18.29          13.99          43.72         -7.448        -0.8629         -48.63          27.17          131.6          98.94          135.5
     1.372               -24.4           18.3          14.27          43.66         -7.443        -0.9082         -49.15           27.0          130.7          98.94          135.4
      1.41              -24.57           18.3           14.6          43.59         -7.437        -0.9625         -49.77           26.8          129.6          98.95          135.1
     1.448              -24.78          18.31           15.0           43.5         -7.429         -1.028         -50.52          26.56          128.2          98.95          134.9
     1.486              -25.04          18.32           15.5          43.39          -7.42         -1.109         -51.44          26.26          126.5          98.96          134.6
     1.524              -25.36          18.33           16.1          43.26         -7.409         -1.208         -52.58          25.89          124.5          98.96          134.2
     1.562              -25.76          18.34          16.86           43.1         -7.396         -1.331         -53.99          25.43          121.9          98.97          133.7
       1.6              -26.26          18.36          17.81          42.89         -7.378         -1.487         -55.78          24.85          118.7          98.98          133.1
     1.638               -26.9          18.38          19.02          42.62         -7.356         -1.685         -58.04          24.11          114.6          98.99          132.3
     1.676              -27.72           18.4          20.58          42.28         -7.328         -1.938         -60.94          23.17          109.3           99.0          131.4
     1.714              -28.77          18.44          22.57          41.85         -7.292         -2.263         -64.67          21.95          102.5          99.02          130.1
     1.753              -30.11          18.48          25.11           41.3         -7.246         -2.678         -69.42          20.41          93.89          99.04          128.5
     1.791              -31.79          18.53          28.31           40.6         -7.188           -3.2          -75.4          18.46          83.03          99.07          126.5
     1.829              -33.84           18.6           32.2          39.75         -7.117         -3.836         -82.69          16.09           69.8           99.1          124.0
     1.867              -36.22          18.67          36.72          38.76         -7.035         -4.573         -91.13          13.34          54.46          99.14          121.2
     1.905               -38.8          18.75          41.61          37.69         -6.946         -5.372         -100.3          10.36          37.85          99.18          118.1
     1.943              -41.37          18.83           46.5          36.63         -6.858          -6.17         -109.4          7.388          21.25          99.22          115.0
     1.981              -43.75          18.91          51.01          35.64         -6.776         -6.907         -117.9          4.639          5.908          99.26          112.1
     2.019              -45.81          18.97          54.91          34.79         -6.705         -7.543         -125.2          2.268         -7.324           99.3          109.7
     2.057              -47.49          19.02           58.1          34.09         -6.647         -8.065         -131.1         0.3217         -18.18          99.32          107.6
     2.095              -48.83          19.07          60.65          33.54         -6.601          -8.48         -135.9         -1.226         -26.82          99.35          106.0
     2.133              -49.88           19.1          62.64          33.11         -6.565         -8.805         -139.6         -2.437         -33.58          99.36          104.8
     2.172              -50.69          19.12          64.19          32.77         -6.537         -9.058         -142.5         -3.381         -38.85          99.38          103.8
      2.21              -51.33          19.14           65.4           32.5         -6.515         -9.256         -144.8         -4.119         -42.96          99.39          103.0
     2.248              -51.83          19.16          66.35          32.29         -6.497         -9.412         -146.6         -4.699          -46.2           99.4          102.4
